<mxfile host="app.diagrams.net" agent="Mozilla/5.0 (Macintosh; Intel Mac OS X 10_15_7) AppleWebKit/605.1.15 (KHTML, like Gecko) Version/18.3.1 Safari/605.1.15" version="26.2.8">
  <diagram name="Page-1" id="Qlt7y49pJGk3R1xusdBs">
    <mxGraphModel dx="1378" dy="282" grid="1" gridSize="10" guides="1" tooltips="1" connect="1" arrows="1" fold="1" page="1" pageScale="1" pageWidth="850" pageHeight="1100" math="0" shadow="0">
      <root>
        <mxCell id="0" />
        <mxCell id="1" parent="0" />
        <mxCell id="Zt9elPk1ecMjoIfViZH1-83" value="" style="edgeStyle=orthogonalEdgeStyle;rounded=0;orthogonalLoop=1;jettySize=auto;html=1;" parent="1" source="Zt9elPk1ecMjoIfViZH1-4" target="Zt9elPk1ecMjoIfViZH1-8" edge="1">
          <mxGeometry relative="1" as="geometry" />
        </mxCell>
        <mxCell id="Zt9elPk1ecMjoIfViZH1-4" value="&lt;b&gt;Azure Cloud&lt;/b&gt;" style="sketch=0;outlineConnect=0;gradientColor=none;html=1;whiteSpace=wrap;fontSize=12;fontStyle=0;shape=mxgraph.aws4.group;grIcon=mxgraph.aws4.group_vpc;strokeColor=#879196;fillColor=#009900;verticalAlign=top;align=left;spacingLeft=30;fontColor=#879196;dashed=0;" parent="1" vertex="1">
          <mxGeometry x="765" y="320" width="435" height="330" as="geometry" />
        </mxCell>
        <mxCell id="Zt9elPk1ecMjoIfViZH1-1" value="Store 1 VPC" style="sketch=0;outlineConnect=0;gradientColor=none;html=1;whiteSpace=wrap;fontSize=12;fontStyle=0;shape=mxgraph.aws4.group;grIcon=mxgraph.aws4.group_vpc;strokeColor=#879196;fillColor=#CCE5FF;verticalAlign=top;align=left;spacingLeft=30;fontColor=#879196;dashed=0;" parent="1" vertex="1">
          <mxGeometry x="99" y="140" width="610" height="500" as="geometry" />
        </mxCell>
        <mxCell id="Zt9elPk1ecMjoIfViZH1-5" value="App Server Subnet" style="sketch=0;outlineConnect=0;gradientColor=none;html=1;whiteSpace=wrap;fontSize=12;fontStyle=0;shape=mxgraph.aws4.group;grIcon=mxgraph.aws4.group_subnet;strokeColor=#879196;fillColor=#FF8000;verticalAlign=top;align=left;spacingLeft=30;fontColor=#879196;dashed=0;" parent="1" vertex="1">
          <mxGeometry x="270" y="410" width="400" height="210" as="geometry" />
        </mxCell>
        <mxCell id="Zt9elPk1ecMjoIfViZH1-7" value="Store DB" style="sketch=0;outlineConnect=0;fontColor=#232F3E;gradientColor=none;strokeColor=#232F3E;fillColor=#ffffff;dashed=0;verticalLabelPosition=bottom;verticalAlign=top;align=center;html=1;fontSize=12;fontStyle=0;aspect=fixed;shape=mxgraph.aws4.resourceIcon;resIcon=mxgraph.aws4.generic_database;" parent="1" vertex="1">
          <mxGeometry x="560" y="580" width="30" height="30" as="geometry" />
        </mxCell>
        <mxCell id="Zt9elPk1ecMjoIfViZH1-8" value="On-Premise" style="sketch=0;outlineConnect=0;gradientColor=none;html=1;whiteSpace=wrap;fontSize=12;fontStyle=0;shape=mxgraph.aws4.group;grIcon=mxgraph.aws4.group_on_premise;strokeColor=#AAB7B8;fillColor=#330000;verticalAlign=top;align=left;spacingLeft=30;fontColor=#AAB7B8;dashed=0;" parent="1" vertex="1">
          <mxGeometry x="910" y="110" width="200" height="130" as="geometry" />
        </mxCell>
        <mxCell id="Zt9elPk1ecMjoIfViZH1-100" style="edgeStyle=orthogonalEdgeStyle;rounded=0;orthogonalLoop=1;jettySize=auto;html=1;" parent="1" source="Zt9elPk1ecMjoIfViZH1-11" target="Zt9elPk1ecMjoIfViZH1-7" edge="1">
          <mxGeometry relative="1" as="geometry" />
        </mxCell>
        <mxCell id="Zt9elPk1ecMjoIfViZH1-11" value="Container" style="sketch=0;outlineConnect=0;fontColor=#232F3E;gradientColor=none;strokeColor=#ffffff;fillColor=#232F3E;dashed=0;verticalLabelPosition=middle;verticalAlign=bottom;align=center;html=1;whiteSpace=wrap;fontSize=10;fontStyle=1;spacing=3;shape=mxgraph.aws4.productIcon;prIcon=mxgraph.aws4.ec2;" parent="1" vertex="1">
          <mxGeometry x="465" y="420" width="40" height="60" as="geometry" />
        </mxCell>
        <mxCell id="Zt9elPk1ecMjoIfViZH1-14" value="" style="group;fillColor=#3333FF;" parent="1" vertex="1" connectable="0">
          <mxGeometry x="270" y="180" width="400" height="180" as="geometry" />
        </mxCell>
        <mxCell id="Zt9elPk1ecMjoIfViZH1-2" value="Device Subnet" style="sketch=0;outlineConnect=0;gradientColor=none;html=1;whiteSpace=wrap;fontSize=12;fontStyle=0;shape=mxgraph.aws4.group;grIcon=mxgraph.aws4.group_subnet;strokeColor=#879196;fillColor=none;verticalAlign=top;align=left;spacingLeft=30;fontColor=#879196;dashed=0;" parent="Zt9elPk1ecMjoIfViZH1-14" vertex="1">
          <mxGeometry width="400" height="180" as="geometry" />
        </mxCell>
        <mxCell id="Zt9elPk1ecMjoIfViZH1-6" value="Store DB" style="sketch=0;outlineConnect=0;fontColor=#232F3E;gradientColor=none;strokeColor=#232F3E;fillColor=#ffffff;dashed=0;verticalLabelPosition=bottom;verticalAlign=top;align=center;html=1;fontSize=12;fontStyle=0;aspect=fixed;shape=mxgraph.aws4.resourceIcon;resIcon=mxgraph.aws4.generic_database;" parent="Zt9elPk1ecMjoIfViZH1-14" vertex="1">
          <mxGeometry x="350" y="120" width="30" height="30" as="geometry" />
        </mxCell>
        <mxCell id="Zt9elPk1ecMjoIfViZH1-32" style="edgeStyle=orthogonalEdgeStyle;rounded=0;orthogonalLoop=1;jettySize=auto;html=1;" parent="Zt9elPk1ecMjoIfViZH1-14" source="Zt9elPk1ecMjoIfViZH1-9" target="Zt9elPk1ecMjoIfViZH1-6" edge="1">
          <mxGeometry relative="1" as="geometry" />
        </mxCell>
        <mxCell id="Zt9elPk1ecMjoIfViZH1-9" value="Container" style="sketch=0;outlineConnect=0;fontColor=#232F3E;gradientColor=none;strokeColor=#ffffff;fillColor=#232F3E;dashed=0;verticalLabelPosition=middle;verticalAlign=bottom;align=center;html=1;whiteSpace=wrap;fontSize=10;fontStyle=1;spacing=3;shape=mxgraph.aws4.productIcon;prIcon=mxgraph.aws4.ec2;" parent="Zt9elPk1ecMjoIfViZH1-14" vertex="1">
          <mxGeometry x="260" y="20" width="50" height="70" as="geometry" />
        </mxCell>
        <mxCell id="Zt9elPk1ecMjoIfViZH1-89" style="edgeStyle=orthogonalEdgeStyle;rounded=0;orthogonalLoop=1;jettySize=auto;html=1;" parent="Zt9elPk1ecMjoIfViZH1-14" source="Zt9elPk1ecMjoIfViZH1-12" target="Zt9elPk1ecMjoIfViZH1-88" edge="1">
          <mxGeometry relative="1" as="geometry" />
        </mxCell>
        <mxCell id="Zt9elPk1ecMjoIfViZH1-12" value="devices" style="sketch=0;outlineConnect=0;gradientColor=none;fontColor=#545B64;strokeColor=none;fillColor=#879196;dashed=0;verticalLabelPosition=bottom;verticalAlign=top;align=center;html=1;fontSize=12;fontStyle=0;aspect=fixed;shape=mxgraph.aws4.illustration_devices;pointerEvents=1" parent="Zt9elPk1ecMjoIfViZH1-14" vertex="1">
          <mxGeometry x="40" y="60" width="60" height="43.8" as="geometry" />
        </mxCell>
        <mxCell id="Zt9elPk1ecMjoIfViZH1-87" value="Container" style="sketch=0;outlineConnect=0;fontColor=#232F3E;gradientColor=none;strokeColor=#ffffff;fillColor=#232F3E;dashed=0;verticalLabelPosition=middle;verticalAlign=bottom;align=center;html=1;whiteSpace=wrap;fontSize=10;fontStyle=1;spacing=3;shape=mxgraph.aws4.productIcon;prIcon=mxgraph.aws4.ec2;" parent="Zt9elPk1ecMjoIfViZH1-14" vertex="1">
          <mxGeometry x="260" y="100" width="50" height="70" as="geometry" />
        </mxCell>
        <mxCell id="Zt9elPk1ecMjoIfViZH1-90" style="edgeStyle=orthogonalEdgeStyle;rounded=0;orthogonalLoop=1;jettySize=auto;html=1;" parent="Zt9elPk1ecMjoIfViZH1-14" source="Zt9elPk1ecMjoIfViZH1-88" target="Zt9elPk1ecMjoIfViZH1-9" edge="1">
          <mxGeometry relative="1" as="geometry" />
        </mxCell>
        <mxCell id="Zt9elPk1ecMjoIfViZH1-91" style="edgeStyle=orthogonalEdgeStyle;rounded=0;orthogonalLoop=1;jettySize=auto;html=1;" parent="Zt9elPk1ecMjoIfViZH1-14" source="Zt9elPk1ecMjoIfViZH1-88" target="Zt9elPk1ecMjoIfViZH1-87" edge="1">
          <mxGeometry relative="1" as="geometry" />
        </mxCell>
        <mxCell id="Zt9elPk1ecMjoIfViZH1-88" value="&lt;font style=&quot;font-size: 8px;&quot;&gt;&lt;font&gt;Gateway/&lt;/font&gt;&lt;/font&gt;&lt;div&gt;&lt;font style=&quot;font-size: 8px;&quot;&gt;&lt;font&gt;LB&amp;nbsp;&lt;/font&gt;nginx - Layer 7&lt;/font&gt;&lt;/div&gt;" style="sketch=0;outlineConnect=0;fontColor=#232F3E;gradientColor=none;fillColor=#8C4FFF;strokeColor=none;dashed=0;verticalLabelPosition=bottom;verticalAlign=top;align=center;html=1;fontSize=12;fontStyle=0;aspect=fixed;pointerEvents=1;shape=mxgraph.aws4.gateway_load_balancer;" parent="Zt9elPk1ecMjoIfViZH1-14" vertex="1">
          <mxGeometry x="150" y="70.5" width="39" height="39" as="geometry" />
        </mxCell>
        <mxCell id="Zt9elPk1ecMjoIfViZH1-26" value="Support" style="sketch=0;outlineConnect=0;gradientColor=none;fontColor=#545B64;strokeColor=none;fillColor=#879196;dashed=0;verticalLabelPosition=bottom;verticalAlign=top;align=center;html=1;fontSize=12;fontStyle=0;aspect=fixed;shape=mxgraph.aws4.illustration_devices;pointerEvents=1" parent="1" vertex="1">
          <mxGeometry x="-20" y="140" width="60" height="43.8" as="geometry" />
        </mxCell>
        <mxCell id="Zt9elPk1ecMjoIfViZH1-38" style="edgeStyle=orthogonalEdgeStyle;rounded=0;orthogonalLoop=1;jettySize=auto;html=1;" parent="1" source="Zt9elPk1ecMjoIfViZH1-35" target="Zt9elPk1ecMjoIfViZH1-6" edge="1">
          <mxGeometry relative="1" as="geometry" />
        </mxCell>
        <mxCell id="Zt9elPk1ecMjoIfViZH1-46" value="replicate" style="edgeLabel;html=1;align=center;verticalAlign=middle;resizable=0;points=[];" parent="Zt9elPk1ecMjoIfViZH1-38" vertex="1" connectable="0">
          <mxGeometry x="-0.1343" relative="1" as="geometry">
            <mxPoint as="offset" />
          </mxGeometry>
        </mxCell>
        <mxCell id="Zt9elPk1ecMjoIfViZH1-96" style="edgeStyle=orthogonalEdgeStyle;rounded=0;orthogonalLoop=1;jettySize=auto;html=1;" parent="1" source="Zt9elPk1ecMjoIfViZH1-35" target="Zt9elPk1ecMjoIfViZH1-7" edge="1">
          <mxGeometry relative="1" as="geometry">
            <mxPoint x="664.5999999999999" y="549.266905070634" as="sourcePoint" />
            <mxPoint x="605" y="580" as="targetPoint" />
            <Array as="points">
              <mxPoint x="635" y="590" />
              <mxPoint x="610" y="590" />
              <mxPoint x="610" y="600" />
            </Array>
          </mxGeometry>
        </mxCell>
        <mxCell id="Zt9elPk1ecMjoIfViZH1-97" value="replicate" style="edgeLabel;html=1;align=center;verticalAlign=middle;resizable=0;points=[];" parent="Zt9elPk1ecMjoIfViZH1-96" vertex="1" connectable="0">
          <mxGeometry x="-0.5667" relative="1" as="geometry">
            <mxPoint as="offset" />
          </mxGeometry>
        </mxCell>
        <mxCell id="Zt9elPk1ecMjoIfViZH1-35" value="" style="sketch=0;outlineConnect=0;fontColor=#232F3E;gradientColor=none;fillColor=#7AA116;strokeColor=none;dashed=0;verticalLabelPosition=bottom;verticalAlign=top;align=center;html=1;fontSize=12;fontStyle=0;aspect=fixed;pointerEvents=1;shape=mxgraph.aws4.replication;" parent="1" vertex="1">
          <mxGeometry x="620.77" y="505" width="29.23" height="30" as="geometry" />
        </mxCell>
        <mxCell id="Zt9elPk1ecMjoIfViZH1-59" style="edgeStyle=orthogonalEdgeStyle;rounded=0;orthogonalLoop=1;jettySize=auto;html=1;" parent="1" source="Zt9elPk1ecMjoIfViZH1-39" target="Zt9elPk1ecMjoIfViZH1-50" edge="1">
          <mxGeometry relative="1" as="geometry" />
        </mxCell>
        <mxCell id="Zt9elPk1ecMjoIfViZH1-39" value="Central" style="strokeWidth=2;html=1;shape=mxgraph.flowchart.database;whiteSpace=wrap;" parent="1" vertex="1">
          <mxGeometry x="1000" y="450" width="60" height="60" as="geometry" />
        </mxCell>
        <mxCell id="Zt9elPk1ecMjoIfViZH1-43" style="edgeStyle=orthogonalEdgeStyle;rounded=0;orthogonalLoop=1;jettySize=auto;html=1;" parent="1" source="Zt9elPk1ecMjoIfViZH1-53" target="Zt9elPk1ecMjoIfViZH1-35" edge="1">
          <mxGeometry relative="1" as="geometry">
            <Array as="points" />
          </mxGeometry>
        </mxCell>
        <mxCell id="Zt9elPk1ecMjoIfViZH1-47" value="replicate" style="edgeLabel;html=1;align=center;verticalAlign=middle;resizable=0;points=[];" parent="Zt9elPk1ecMjoIfViZH1-43" vertex="1" connectable="0">
          <mxGeometry x="0.0857" y="2" relative="1" as="geometry">
            <mxPoint as="offset" />
          </mxGeometry>
        </mxCell>
        <mxCell id="Zt9elPk1ecMjoIfViZH1-56" style="edgeStyle=orthogonalEdgeStyle;rounded=0;orthogonalLoop=1;jettySize=auto;html=1;exitX=0.272;exitY=0.467;exitDx=0;exitDy=0;exitPerimeter=0;" parent="1" source="Zt9elPk1ecMjoIfViZH1-40" target="Zt9elPk1ecMjoIfViZH1-53" edge="1">
          <mxGeometry relative="1" as="geometry">
            <Array as="points">
              <mxPoint x="859" y="520" />
              <mxPoint x="859" y="490" />
            </Array>
          </mxGeometry>
        </mxCell>
        <mxCell id="Zt9elPk1ecMjoIfViZH1-40" value="" style="points=[];aspect=fixed;html=1;align=center;shadow=0;dashed=0;fillColor=#FF6A00;strokeColor=none;shape=mxgraph.alibaba_cloud.kafka;" parent="1" vertex="1">
          <mxGeometry x="900" y="505" width="40.5" height="30" as="geometry" />
        </mxCell>
        <mxCell id="Zt9elPk1ecMjoIfViZH1-50" value="Container" style="sketch=0;outlineConnect=0;fontColor=#232F3E;gradientColor=none;strokeColor=#ffffff;fillColor=#232F3E;dashed=0;verticalLabelPosition=middle;verticalAlign=bottom;align=center;html=1;whiteSpace=wrap;fontSize=10;fontStyle=1;spacing=3;shape=mxgraph.aws4.productIcon;prIcon=mxgraph.aws4.ec2;" parent="1" vertex="1">
          <mxGeometry x="900" y="398" width="50" height="70" as="geometry" />
        </mxCell>
        <mxCell id="Zt9elPk1ecMjoIfViZH1-53" value="Store 1 Topic" style="sketch=0;outlineConnect=0;fontColor=#232F3E;gradientColor=none;fillColor=#7AA116;strokeColor=none;dashed=0;verticalLabelPosition=bottom;verticalAlign=top;align=center;html=1;fontSize=12;fontStyle=0;aspect=fixed;pointerEvents=1;shape=mxgraph.aws4.topic_2;" parent="1" vertex="1">
          <mxGeometry x="790" y="465" width="27.18" height="40" as="geometry" />
        </mxCell>
        <mxCell id="Zt9elPk1ecMjoIfViZH1-54" value="" style="edgeStyle=orthogonalEdgeStyle;rounded=0;orthogonalLoop=1;jettySize=auto;html=1;" parent="1" source="Zt9elPk1ecMjoIfViZH1-40" target="Zt9elPk1ecMjoIfViZH1-71" edge="1">
          <mxGeometry relative="1" as="geometry">
            <mxPoint x="858" y="510" as="sourcePoint" />
            <mxPoint x="649" y="530" as="targetPoint" />
            <Array as="points">
              <mxPoint x="858" y="530" />
              <mxPoint x="858" y="580" />
            </Array>
          </mxGeometry>
        </mxCell>
        <mxCell id="Zt9elPk1ecMjoIfViZH1-57" style="edgeStyle=orthogonalEdgeStyle;rounded=0;orthogonalLoop=1;jettySize=auto;html=1;entryX=0.667;entryY=0.167;entryDx=0;entryDy=0;entryPerimeter=0;" parent="1" source="Zt9elPk1ecMjoIfViZH1-50" target="Zt9elPk1ecMjoIfViZH1-40" edge="1">
          <mxGeometry relative="1" as="geometry" />
        </mxCell>
        <mxCell id="Zt9elPk1ecMjoIfViZH1-64" style="edgeStyle=orthogonalEdgeStyle;rounded=0;orthogonalLoop=1;jettySize=auto;html=1;" parent="1" source="Zt9elPk1ecMjoIfViZH1-61" target="Zt9elPk1ecMjoIfViZH1-63" edge="1">
          <mxGeometry relative="1" as="geometry" />
        </mxCell>
        <mxCell id="Zt9elPk1ecMjoIfViZH1-61" value="" style="fontColor=#0066CC;verticalAlign=top;verticalLabelPosition=bottom;labelPosition=center;align=center;html=1;outlineConnect=0;fillColor=#CCCCCC;strokeColor=#6881B3;gradientColor=none;gradientDirection=north;strokeWidth=2;shape=mxgraph.networks.mainframe;" parent="1" vertex="1">
          <mxGeometry x="930" y="153.75" width="70" height="42.5" as="geometry" />
        </mxCell>
        <mxCell id="Zt9elPk1ecMjoIfViZH1-69" style="edgeStyle=orthogonalEdgeStyle;rounded=0;orthogonalLoop=1;jettySize=auto;html=1;" parent="1" source="Zt9elPk1ecMjoIfViZH1-63" target="Zt9elPk1ecMjoIfViZH1-68" edge="1">
          <mxGeometry relative="1" as="geometry" />
        </mxCell>
        <mxCell id="Zt9elPk1ecMjoIfViZH1-63" value="" style="sketch=0;outlineConnect=0;fontColor=#232F3E;gradientColor=none;fillColor=#01A88D;strokeColor=none;dashed=0;verticalLabelPosition=bottom;verticalAlign=top;align=center;html=1;fontSize=12;fontStyle=0;aspect=fixed;shape=mxgraph.aws4.transfer_for_ftps_resource;" parent="1" vertex="1">
          <mxGeometry x="1120.38" y="330" width="29.24" height="30" as="geometry" />
        </mxCell>
        <mxCell id="Zt9elPk1ecMjoIfViZH1-67" style="edgeStyle=orthogonalEdgeStyle;rounded=0;orthogonalLoop=1;jettySize=auto;html=1;exitX=1;exitY=0.5;exitDx=0;exitDy=0;exitPerimeter=0;" parent="1" source="Zt9elPk1ecMjoIfViZH1-65" target="Zt9elPk1ecMjoIfViZH1-8" edge="1">
          <mxGeometry relative="1" as="geometry" />
        </mxCell>
        <mxCell id="Zt9elPk1ecMjoIfViZH1-79" style="edgeStyle=orthogonalEdgeStyle;rounded=0;orthogonalLoop=1;jettySize=auto;html=1;exitX=0.5;exitY=1;exitDx=0;exitDy=0;exitPerimeter=0;" parent="1" source="Zt9elPk1ecMjoIfViZH1-65" target="Zt9elPk1ecMjoIfViZH1-1" edge="1">
          <mxGeometry relative="1" as="geometry" />
        </mxCell>
        <mxCell id="Zt9elPk1ecMjoIfViZH1-65" value="Equinix" style="sketch=0;points=[[0,0,0],[0.25,0,0],[0.5,0,0],[0.75,0,0],[1,0,0],[0,1,0],[0.25,1,0],[0.5,1,0],[0.75,1,0],[1,1,0],[0,0.25,0],[0,0.5,0],[0,0.75,0],[1,0.25,0],[1,0.5,0],[1,0.75,0]];outlineConnect=0;fontColor=#232F3E;fillColor=#8C4FFF;strokeColor=#ffffff;dashed=0;verticalLabelPosition=bottom;verticalAlign=top;align=center;html=1;fontSize=12;fontStyle=0;aspect=fixed;shape=mxgraph.aws4.resourceIcon;resIcon=mxgraph.aws4.direct_connect;" parent="1" vertex="1">
          <mxGeometry x="725" y="210" width="40" height="40" as="geometry" />
        </mxCell>
        <mxCell id="Zt9elPk1ecMjoIfViZH1-68" value="ETL" style="sketch=0;outlineConnect=0;fontColor=#232F3E;gradientColor=none;strokeColor=#ffffff;fillColor=#232F3E;dashed=0;verticalLabelPosition=middle;verticalAlign=bottom;align=center;html=1;whiteSpace=wrap;fontSize=10;fontStyle=1;spacing=3;shape=mxgraph.aws4.productIcon;prIcon=mxgraph.aws4.ec2;" parent="1" vertex="1">
          <mxGeometry x="1110" y="450" width="50" height="70" as="geometry" />
        </mxCell>
        <mxCell id="Zt9elPk1ecMjoIfViZH1-70" style="edgeStyle=orthogonalEdgeStyle;rounded=0;orthogonalLoop=1;jettySize=auto;html=1;entryX=1;entryY=0.5;entryDx=0;entryDy=0;entryPerimeter=0;" parent="1" source="Zt9elPk1ecMjoIfViZH1-68" target="Zt9elPk1ecMjoIfViZH1-39" edge="1">
          <mxGeometry relative="1" as="geometry" />
        </mxCell>
        <mxCell id="Zt9elPk1ecMjoIfViZH1-71" value="Store 2 Topic" style="sketch=0;outlineConnect=0;fontColor=#232F3E;gradientColor=none;fillColor=#7AA116;strokeColor=none;dashed=0;verticalLabelPosition=bottom;verticalAlign=top;align=center;html=1;fontSize=12;fontStyle=0;aspect=fixed;pointerEvents=1;shape=mxgraph.aws4.topic_2;" parent="1" vertex="1">
          <mxGeometry x="790" y="560" width="27.18" height="40" as="geometry" />
        </mxCell>
        <mxCell id="Zt9elPk1ecMjoIfViZH1-81" style="edgeStyle=orthogonalEdgeStyle;rounded=0;orthogonalLoop=1;jettySize=auto;html=1;" parent="1" source="Zt9elPk1ecMjoIfViZH1-80" target="Zt9elPk1ecMjoIfViZH1-1" edge="1">
          <mxGeometry relative="1" as="geometry" />
        </mxCell>
        <mxCell id="Zt9elPk1ecMjoIfViZH1-82" style="edgeStyle=orthogonalEdgeStyle;rounded=0;orthogonalLoop=1;jettySize=auto;html=1;" parent="1" source="Zt9elPk1ecMjoIfViZH1-80" target="Zt9elPk1ecMjoIfViZH1-4" edge="1">
          <mxGeometry relative="1" as="geometry" />
        </mxCell>
        <mxCell id="Zt9elPk1ecMjoIfViZH1-80" value="Equinix" style="sketch=0;points=[[0,0,0],[0.25,0,0],[0.5,0,0],[0.75,0,0],[1,0,0],[0,1,0],[0.25,1,0],[0.5,1,0],[0.75,1,0],[1,1,0],[0,0.25,0],[0,0.5,0],[0,0.75,0],[1,0.25,0],[1,0.5,0],[1,0.75,0]];outlineConnect=0;fontColor=#232F3E;fillColor=#8C4FFF;strokeColor=#ffffff;dashed=0;verticalLabelPosition=bottom;verticalAlign=top;align=center;html=1;fontSize=12;fontStyle=0;aspect=fixed;shape=mxgraph.aws4.resourceIcon;resIcon=mxgraph.aws4.direct_connect;" parent="1" vertex="1">
          <mxGeometry x="720" y="680" width="30" height="30" as="geometry" />
        </mxCell>
        <mxCell id="Zt9elPk1ecMjoIfViZH1-94" style="edgeStyle=orthogonalEdgeStyle;rounded=0;orthogonalLoop=1;jettySize=auto;html=1;" parent="1" source="Zt9elPk1ecMjoIfViZH1-92" target="Zt9elPk1ecMjoIfViZH1-11" edge="1">
          <mxGeometry relative="1" as="geometry" />
        </mxCell>
        <mxCell id="Zt9elPk1ecMjoIfViZH1-99" style="edgeStyle=orthogonalEdgeStyle;rounded=0;orthogonalLoop=1;jettySize=auto;html=1;" parent="1" source="Zt9elPk1ecMjoIfViZH1-92" target="Zt9elPk1ecMjoIfViZH1-98" edge="1">
          <mxGeometry relative="1" as="geometry">
            <Array as="points">
              <mxPoint x="340" y="540" />
            </Array>
          </mxGeometry>
        </mxCell>
        <mxCell id="Zt9elPk1ecMjoIfViZH1-92" value="Gateway" style="sketch=0;outlineConnect=0;fontColor=#232F3E;gradientColor=none;fillColor=#8C4FFF;strokeColor=none;dashed=0;verticalLabelPosition=bottom;verticalAlign=top;align=center;html=1;fontSize=12;fontStyle=0;aspect=fixed;pointerEvents=1;shape=mxgraph.aws4.gateway_load_balancer;" parent="1" vertex="1">
          <mxGeometry x="320" y="470" width="39" height="39" as="geometry" />
        </mxCell>
        <mxCell id="Zt9elPk1ecMjoIfViZH1-93" style="edgeStyle=orthogonalEdgeStyle;rounded=0;orthogonalLoop=1;jettySize=auto;html=1;" parent="1" source="Zt9elPk1ecMjoIfViZH1-12" target="Zt9elPk1ecMjoIfViZH1-92" edge="1">
          <mxGeometry relative="1" as="geometry" />
        </mxCell>
        <mxCell id="Zt9elPk1ecMjoIfViZH1-101" style="edgeStyle=orthogonalEdgeStyle;rounded=0;orthogonalLoop=1;jettySize=auto;html=1;" parent="1" source="Zt9elPk1ecMjoIfViZH1-98" target="Zt9elPk1ecMjoIfViZH1-7" edge="1">
          <mxGeometry relative="1" as="geometry">
            <Array as="points">
              <mxPoint x="488" y="590" />
            </Array>
          </mxGeometry>
        </mxCell>
        <mxCell id="Zt9elPk1ecMjoIfViZH1-98" value="Container" style="sketch=0;outlineConnect=0;fontColor=#232F3E;gradientColor=none;strokeColor=#ffffff;fillColor=#232F3E;dashed=0;verticalLabelPosition=middle;verticalAlign=bottom;align=center;html=1;whiteSpace=wrap;fontSize=10;fontStyle=1;spacing=3;shape=mxgraph.aws4.productIcon;prIcon=mxgraph.aws4.ec2;" parent="1" vertex="1">
          <mxGeometry x="465" y="500" width="45" height="60" as="geometry" />
        </mxCell>
        <mxCell id="1UCu62h8_dE0axEYMtPQ-8" style="edgeStyle=orthogonalEdgeStyle;rounded=0;orthogonalLoop=1;jettySize=auto;html=1;" parent="1" source="1UCu62h8_dE0axEYMtPQ-3" target="Zt9elPk1ecMjoIfViZH1-12" edge="1">
          <mxGeometry relative="1" as="geometry">
            <mxPoint x="220" y="368" as="targetPoint" />
            <Array as="points">
              <mxPoint x="140" y="369" />
              <mxPoint x="140" y="270" />
            </Array>
          </mxGeometry>
        </mxCell>
        <mxCell id="1UCu62h8_dE0axEYMtPQ-9" style="edgeStyle=orthogonalEdgeStyle;rounded=0;orthogonalLoop=1;jettySize=auto;html=1;" parent="1" source="1UCu62h8_dE0axEYMtPQ-3" target="Zt9elPk1ecMjoIfViZH1-92" edge="1">
          <mxGeometry relative="1" as="geometry">
            <Array as="points">
              <mxPoint x="140" y="369" />
              <mxPoint x="140" y="480" />
            </Array>
          </mxGeometry>
        </mxCell>
        <mxCell id="1UCu62h8_dE0axEYMtPQ-3" value="VPN Gateway" style="outlineConnect=0;dashed=0;verticalLabelPosition=bottom;verticalAlign=top;align=center;html=1;shape=mxgraph.aws3.vpn_gateway;fillColor=#F58534;gradientColor=none;" parent="1" vertex="1">
          <mxGeometry x="30" y="350" width="33.5" height="38" as="geometry" />
        </mxCell>
        <mxCell id="1UCu62h8_dE0axEYMtPQ-7" style="edgeStyle=orthogonalEdgeStyle;rounded=0;orthogonalLoop=1;jettySize=auto;html=1;entryX=0;entryY=0.5;entryDx=0;entryDy=0;entryPerimeter=0;" parent="1" source="Zt9elPk1ecMjoIfViZH1-26" target="1UCu62h8_dE0axEYMtPQ-3" edge="1">
          <mxGeometry relative="1" as="geometry" />
        </mxCell>
        <mxCell id="1UCu62h8_dE0axEYMtPQ-10" style="edgeStyle=orthogonalEdgeStyle;rounded=0;orthogonalLoop=1;jettySize=auto;html=1;" parent="1" source="Zt9elPk1ecMjoIfViZH1-87" target="Zt9elPk1ecMjoIfViZH1-92" edge="1">
          <mxGeometry relative="1" as="geometry">
            <mxPoint x="575" y="375" as="sourcePoint" />
            <mxPoint x="530" y="480" as="targetPoint" />
            <Array as="points">
              <mxPoint x="555" y="380" />
              <mxPoint x="340" y="380" />
            </Array>
          </mxGeometry>
        </mxCell>
      </root>
    </mxGraphModel>
  </diagram>
</mxfile>
